<?xml version="1.0" encoding="utf-8"?>
<!-- Generator: Adobe Illustrator 23.0.2, SVG Export Plug-In . SVG Version: 6.00 Build 0)  -->
<svg version="1.1" id="Layer_1" xmlns="http://www.w3.org/2000/svg" xmlns:xlink="http://www.w3.org/1999/xlink" x="0px" y="0px"
	 viewBox="0 0 236.5 236.2" style="enable-background:new 0 0 236.5 236.2;" xml:space="preserve">
<style type="text/css">
	.st0{fill-rule:evenodd;clip-rule:evenodd;fill:#000333;}
	.st1{fill:#000333;}
</style>
<path class="st0" d="M169.4,31.1C148.6,9.4,123,3.4,94.6,17.2c-1.9,0.9-4.2,1.1-6.2,1.6L77.8,0C71,27.3,57.2,38.4,30.5,29.2
	c0,12.5-0.8,23.1,0.2,33.5c1.8,20.4,12.4,35.1,32.2,40.9c5.5,1.5,10.3,4.8,13.7,9.4c-0.9,5.7-1.4,11.5-1.4,17.3
	c0,18.5,4.2,33.5,9.5,33.5c3.5,0,6.6-6.9,8.3-17.1c0.6-2.7,0.9-5.4,1.3-8.2c0.2-1.2,0.4-2.4,0.7-3.7c0.8-3.9,2-7.8,3-11.7
	c0.3-0.6,0.6-1.2,1-1.7l1.3,0.1c-0.2,2.8-0.3,5.8-0.3,8.8c0,10.8,1.5,20.4,3.7,26.5v1.9l0.8,0.2c1.5,3.1,3.1,4.9,5,4.9
	c4.8,0,8.8-12.8,9.4-29.3c1.3-5,3.4-9.7,6.2-14l1-1.5c0.5-0.7,1-1.3,1.5-1.9c0.1,0.3,0.2,0.5,0.4,0.8c-0.4,2.4-0.8,5-1.1,7.6
	c-2,18.4,0.5,33.8,5.7,34.4c1.3,0,2.6-0.6,3.4-1.6l0.5,0.4c3-5.2,5.5-10.6,7.4-16.3c2.5-4.9,5.1-9.7,7.6-14.5
	c-3,13.2-3.1,24.9-0.8,30c0,0.1,0,0.2,0,0.4l0.2-0.1c0.4,1.1,1.4,2,2.5,2.4c3.5,0.8,8.1-5.2,12.1-14.8c1.1-1.9,2.2-3.9,3.4-5.7
	l0.2-0.2c6.4-7.7,13.5-10.6,22.2-15.2c0.2,7.3,2.6,15.5,0.1,21.7c-8.2,19.7-24,22.8-44.9,26.6c-15.5,2.8-31.3,3.7-46.7,6.5
	c-8.5,1.5-17.4,3.8-24.7,8.2c-7.5,4.5-10.9,11.2-10.1,17.6c-0.8,8.9,2.5,18.2,10.1,22.6s17.3,7,26.2,7.8
	c48.4,4.4,90.8-13.4,105-58.6c0.2-0.7,0.4-1.3,0.6-2c0.1-0.4,0.3-0.9,0.4-1.3c0.4-1.4,0.7-2.8,1.1-4.2
	C220.2,117.1,206.7,70,169.4,31.1z M55.7,84.4c-10.3,0.3-16-6-17.2-15.7c-1.1-9.3,7.5-17.8,17-17.3c10.2,0.5,15.6,6.2,16.4,17.1
	C71,77.9,65.9,84.2,55.7,84.4z M109.3,48.5c-0.4,9.6-8.4,17.2-19.8,17.1c-9.2-0.8-15.6-6.7-15.8-17.6S80.3,31,90.9,30
	C100.7,29.2,109.6,38.5,109.3,48.5z"/>
<path class="st1" d="M55.2,75.1c0,2.5-2,4.5-4.5,4.5s-4.5-2-4.5-4.5s2-4.5,4.5-4.5C53.2,70.7,55.2,72.7,55.2,75.1z"/>
<path class="st1" d="M91.3,53.5c0,2.5-2,4.5-4.5,4.5s-4.5-2-4.5-4.5s2-4.5,4.5-4.5S91.3,51.1,91.3,53.5L91.3,53.5z"/>
</svg>
