<svg xmlns="http://www.w3.org/2000/svg" width="24" height="24" viewBox="0 0 128 128" fill="#333">
  <path d="M18,19h88c.085,0,.17-.01184.25507-.01569A12.00029,12.00029,0,1,0,106.26672,5h-87.981A18.13548,18.13548,0,0,0,0,22.93909v87.12177A18.13553,18.13553,0,0,0,18.28571,128h91.42859A18.13553,18.13553,0,0,0,128,110.06085V57.55835C128,47.66675,120.0827,39,110,39H58A17.94123,17.94123,0,0,0,40,57V73A17.94123,17.94123,0,0,0,58,91H82.50049a11.9899,11.9899,0,1,0-.46436-14H58c-2.6532,0-4-1.39709-4-4V57c0-2.60291,1.3468-4,4-4h52c2.6532,0,4,1.39709,4,4v53c0,2.60291-1.3468,4-4,4H18c-2.6532,0-4-1.39709-4-4V23C14,20.39709,15.3468,19,18,19Z"/>
</svg>